<svg width="18" height="20" viewBox="0 0 18 20" fill="none" xmlns="http://www.w3.org/2000/svg">
<path d="M7 12.65V7.35L12 10L7 12.65ZM14.77 8.32C14 8 13.57 7.82 13.57 7.82L15 7.06C16.84 6.1 17.53 3.83 16.56 2C15.59 0.169999 13.32 -0.530001 11.49 0.439999L3 4.94C1.71 5.62 0.929999 6.98 0.999999 8.43C1.07 9.85 1.93 11.1 3.22 11.68C3.25 11.69 4.42 12.18 4.42 12.18L3 12.93C1.17 13.9 0.469999 16.17 1.44 18C2.41 19.83 4.68 20.53 6.51 19.56L15.01 15.06C16.3 14.38 17.07 13.02 17 11.57C16.93 10.15 16.06 8.89 14.77 8.32ZM14.54 14.18L6.04 18.68C4.7 19.39 3.03 18.88 2.32 17.54C1.61 16.2 2.12 14.53 3.46 13.82L5.5 12.74V11.53L4.81 11.25L3.7 10.79C2.71 10.38 2.05 9.44 2 8.38C1.95 7.32 2.52 6.32 3.46 5.82L11.96 1.32C13.3 0.609999 14.97 1.12 15.68 2.46C16.39 3.8 15.88 5.47 14.54 6.18L12.5 7.26V8.47L14.3 9.21C15.29 9.62 15.95 10.56 16 11.62C16.05 12.68 15.48 13.68 14.54 14.18Z" fill="#030303"/>
</svg>
