<svg width="21" height="20" viewBox="0 0 21 20" fill="none" xmlns="http://www.w3.org/2000/svg">
<path d="M13.97 14.95L9 11.87V5H11V10.76L15.03 13.25L13.97 14.95ZM21 10C21 15.51 16.51 20 11 20C5.49 20 0.999999 15.51 0.999999 10H2C2 14.96 6.04 19 11 19C15.96 19 20 14.96 20 10C20 5.04 15.96 1 11 1C7.81 1 4.92 2.64 3.28 5.38C3.17 5.56 3.06 5.75 2.97 5.94C2.96 5.96 2.95 5.98 2.94 6H7V7H0.959999V1H1.96V5.74C2 5.65 2.03 5.57 2.07 5.49C2.18 5.27 2.3 5.07 2.42 4.86C4.22 1.86 7.51 0 11 0C16.51 0 21 4.49 21 10Z" fill="#030303"/>
</svg>
